name analog
datacolumns 19
datarows 18
range 0.484 0.4925
endheader
time	ground_force_vx	ground_force_vy	ground_force_vz	ground_force_px	ground_force_py	ground_force_pz	l_ground_force_vx	l_ground_force_vy	l_ground_force_vz	l_ground_force_px	l_ground_force_py	l_ground_force_pz	ground_torque_x	ground_torque_y	ground_torque_z	l_ground_torque_x	l_ground_torque_y	l_ground_torque_z
0.484	-0.0	-0.0	-0.0	-5.815684795379639	7.547226428985596	-136.0314483642578	6.405878067016602	-31.191495895385746	-656.092529296875	-0.0	-0.0	-0.0	-0.0	-0.0	-0.0	226879.0	9681.451171875	5.9974045753479
0.4845	-0.0	-0.0	-0.0	-7.553864002227783	9.00217056274414	-145.56759643554688	6.209754943847656	-31.251863479614254	-646.6287841796875	-0.0	-0.0	-0.0	-0.0	-0.0	-0.0	223838.96875	9600.9423828125	-3.5215952396392822
0.485	-0.0	-0.0	-0.0	-9.589251518249512	10.399131774902344	-153.63327026367188	6.52219295501709	-30.60540580749512	-636.4324340820312	-0.0	-0.0	-0.0	-0.0	-0.0	-0.0	220397.703125	9548.2685546875	116.8253402709961
0.4855	-0.0	-0.0	-0.0	-10.408381462097168	12.019457817077637	-160.10630798339844	6.8910746574401855	-30.665342330932617	-629.8695068359375	-0.0	-0.0	-0.0	-0.0	-0.0	-0.0	217488.890625	9664.7734375	17.290529251098633
0.486	-0.0	-0.0	-0.0	-10.570931434631348	12.820094108581545	-169.7672576904297	7.008152008056641	-29.764408111572266	-620.7229614257812	-0.0	-0.0	-0.0	-0.0	-0.0	-0.0	214615.390625	9406.0595703125	31.855024337768555
0.4865	-0.0	-0.0	-0.0	-10.779726028442385	14.439125061035156	-174.41543579101562	6.561710357666016	-29.322799682617188	-613.2791137695312	-0.0	-0.0	-0.0	-0.0	-0.0	-0.0	211811.0625	9263.2021484375	354.1527709960937
0.487	-0.0	-0.0	-0.0	-10.749679565429688	16.504289627075195	-182.5955047607422	7.079973220825195	-29.17475891113281	-605.2393798828125	-0.0	-0.0	-0.0	-0.0	-0.0	-0.0	209678.3125	9135.8740234375	215.72412109375
0.4875	-0.0	-0.0	-0.0	-11.508091926574709	18.53912353515625	-188.00927734375	8.103645324707031	-28.926393508911133	-597.8043823242188	-0.0	-0.0	-0.0	-0.0	-0.0	-0.0	207095.421875	8626.3359375	443.3765869140625
0.488	-0.0	-0.0	-0.0	-12.563754081726074	20.75247001647949	-193.3076171875	8.190361976623535	-28.645069122314453	-589.1898193359375	-0.0	-0.0	-0.0	-0.0	-0.0	-0.0	204695.84375	8551.9638671875	616.6503295898438
0.4885	-0.0	-0.0	-0.0	-13.55999755859375	22.74323844909668	-201.7813720703125	8.234179496765137	-28.3802490234375	-584.6463012695312	-0.0	-0.0	-0.0	-0.0	-0.0	-0.0	202390.5	8359.8134765625	685.788330078125
0.489	-0.0	-0.0	-0.0	-14.037233352661133	25.01557159423828	-208.20172119140625	8.974394798278809	-27.673770904541016	-579.4766845703125	-0.0	-0.0	-0.0	-0.0	-0.0	-0.0	200135.921875	8342.0283203125	869.73828125
0.4895	-0.0	-0.0	-0.0	-15.076576232910156	26.708927154541016	-215.3201141357422	8.782367706298828	-27.93885803222656	-573.249267578125	-0.0	-0.0	-0.0	-0.0	-0.0	-0.0	198584.421875	8271.4970703125	997.9180908203124
0.49	-0.0	-0.0	-0.0	-14.94370460510254	28.29795837402344	-221.1432647705078	8.723410606384277	-27.806655883789062	-568.3006591796875	-0.0	-0.0	-0.0	-0.0	-0.0	-0.0	196230.0625	8363.623046875	997.8612060546876
0.4905	-0.0	-0.0	-0.0	-15.43341827392578	29.91737937927246	-228.09393310546875	8.264890670776367	-27.526935577392575	-562.25048828125	-0.0	-0.0	-0.0	-0.0	-0.0	-0.0	194439.015625	8443.369140625	883.8624877929688
0.491	-0.0	-0.0	-0.0	-15.461456298828123	30.854398727416992	-232.86666870117188	8.191089630126953	-27.733009338378903	-555.6755981445312	-0.0	-0.0	-0.0	-0.0	-0.0	-0.0	192300.375	8156.71337890625	1007.2315673828124
0.4915	-0.0	-0.0	-0.0	-15.891851425170898	31.463031768798828	-238.39645385742188	8.042840003967285	-27.76190948486328	-547.9363403320312	-0.0	-0.0	-0.0	-0.0	-0.0	-0.0	189964.484375	8388.7734375	927.9601440429688
0.492	-0.0	-0.0	-0.0	-15.80567455291748	32.97170639038086	-245.64312744140625	7.392932891845703	-28.07139205932617	-543.8604125976562	-0.0	-0.0	-0.0	-0.0	-0.0	-0.0	188250.578125	8594.337890625	557.4763793945312
0.4925	-0.0	-0.0	-0.0	-16.352785110473633	33.45484924316406	-252.0012359619141	6.920978546142578	-27.911182403564453	-537.752685546875	-0.0	-0.0	-0.0	-0.0	-0.0	-0.0	185904.4375	8904.9462890625	393.524658203125
